# xmcd
#
# Track frame offsets:
#	150
#	13637
#	26947
#	41636
#	55665
#	68690
#	80770
#	92993
#	105667
#	115856
#	129171
#	143498
#	155716
#	169527
#	182196
#	193209
#	206709
#	220350
#
# Disc length: 3116 seconds
#
# Revision: 1
# Processed by: cddbd v1.5.2PL0 Copyright (c) Steve Scherf et al.
# Submitted via: audiograbber 1.83.01
#
DISCID=030c2a12
DTITLE=Various Artist - Blues CD1
DYEAR=2009
DGENRE=Blues
TTITLE0=Brownie Mc Ghee - Death Of Blind Boy Fuller
TTITLE1=Sarah Vaughan - You Taught Me To Love Again
TTITLE2=John Lee Hooker - Boogie Chillen
TTITLE3=Big Joe Turner - Howlin' Winds
TTITLE4=Memphis Slim - Empty Room Blues
TTITLE5=Sonny Terry - Worried Man Blues
TTITLE6=T-Bone Walker - T-Bone Jumps Again
TTITLE7=Sonny Boy Williamson - Train Fare Blues
TTITLE8=Dinah Washington - Never Never
TTITLE9=John Lee Hooker - Boogie Woogie
TTITLE10=Muddy Waters - Rollin' And Tumblin'
TTITLE11=Sonny Terry - New Love Blues
TTITLE12=Charlie Parker - Steeplechase
TTITLE13=T-Bone Walker - Don't Leave Me Baby
TTITLE14=Big Joe Turner - Sunday Morning Blues
TTITLE15=Sarah Vaughan - Street Of Dreams
TTITLE16=Dinah Washington - Stormy Weather
TTITLE17=Sonny Boy Williamson - Skinny Woman
EXTD=(c) and (p) T2 Entertainment
EXTT0=
EXTT1=
EXTT2=
EXTT3=
EXTT4=
EXTT5=
EXTT6=
EXTT7=
EXTT8=
EXTT9=
EXTT10=
EXTT11=
EXTT12=
EXTT13=
EXTT14=
EXTT15=
EXTT16=
EXTT17=
PLAYORDER=
